<?xml version="1.0" standalone="no"?>
<!DOCTYPE svg PUBLIC "-//W3C//DTD SVG 20010904//EN"
 "http://www.w3.org/TR/2001/REC-SVG-20010904/DTD/svg10.dtd">
<svg version="1.0" xmlns="http://www.w3.org/2000/svg"
 width="120.000000pt" height="120.000000pt" viewBox="0 0 120.000000 120.000000"
 preserveAspectRatio="xMidYMid meet">
<metadata>
Created by potrace 1.14, written by Peter Selinger 2001-2017
</metadata>
<g transform="translate(0.000000,120.000000) scale(0.100000,-0.100000)"
fill="#000000" stroke="none">
<path d="M578 1046 c-10 -7 -18 -18 -18 -25 0 -6 -4 -11 -9 -11 -5 0 -14 -13
-21 -30 -7 -16 -16 -30 -21 -30 -5 0 -9 -7 -9 -15 0 -8 -4 -15 -10 -15 -5 0
-12 -11 -16 -25 -3 -14 -10 -25 -15 -25 -5 0 -9 -7 -9 -15 0 -9 -7 -18 -15
-21 -8 -4 -13 -10 -10 -14 3 -5 -3 -13 -12 -19 -10 -6 -15 -11 -10 -11 10 0
-23 -52 -40 -63 -8 -5 -11 -12 -9 -16 3 -4 -5 -19 -17 -32 -12 -13 -22 -26
-22 -29 -1 -8 -38 -64 -48 -71 -5 -3 -8 -10 -7 -14 1 -4 -7 -18 -19 -31 -11
-13 -21 -27 -21 -32 0 -4 -5 -14 -12 -22 -7 -8 -22 -32 -33 -53 -11 -20 -23
-37 -27 -37 -5 0 -8 -7 -8 -15 0 -9 -7 -18 -15 -21 -8 -4 -13 -9 -10 -14 2 -4
-4 -16 -13 -26 -10 -10 -19 -23 -19 -27 -1 -5 -10 -20 -22 -33 -11 -13 -18
-24 -13 -24 4 0 2 -4 -5 -8 -6 -4 -14 -20 -17 -35 -9 -53 -2 -53 574 -51 289
1 534 2 546 3 38 2 47 59 14 91 -11 10 -37 55 -38 64 0 5 -4 12 -9 15 -11 8
-44 60 -41 64 2 1 -7 13 -19 27 -13 13 -23 30 -23 37 0 7 -4 13 -8 13 -5 0
-15 12 -23 28 -8 15 -16 29 -19 32 -10 10 -40 60 -39 66 0 3 -8 12 -18 20 -10
7 -14 14 -10 14 4 0 3 6 -3 13 -7 6 -40 57 -75 112 -36 55 -69 106 -75 113 -6
6 -8 12 -5 12 3 0 -4 10 -15 23 -12 12 -29 36 -37 52 -9 17 -22 38 -31 48 -8
9 -12 17 -8 17 4 0 1 7 -7 15 -9 8 -17 19 -19 23 -6 17 -43 21 -60 8z m48
-159 c10 -13 20 -30 22 -38 2 -7 9 -17 15 -21 7 -4 12 -11 13 -15 2 -21 28
-62 37 -56 12 7 10 4 -68 -117 -33 -51 -59 -97 -57 -102 1 -5 -2 -7 -7 -4 -5
3 -11 -1 -14 -8 -3 -8 -25 -45 -49 -82 -24 -37 -41 -69 -40 -72 2 -3 -1 -8 -6
-11 -13 -8 -82 -108 -82 -119 0 -4 -49 -8 -110 -8 -60 0 -110 2 -110 4 0 8 35
67 48 80 6 7 12 17 12 21 0 4 11 21 25 37 14 16 25 33 25 37 0 4 23 41 50 82
28 41 48 75 45 75 -3 0 4 9 15 20 12 12 18 26 14 33 -4 7 -4 9 1 5 7 -7 98
124 95 138 -1 4 3 10 8 13 13 8 82 111 82 122 0 16 16 10 36 -14z m198 -312
c21 -33 44 -63 50 -67 6 -4 8 -8 3 -8 -8 0 82 -141 98 -152 7 -5 7 -8 0 -8 -6
0 -5 -3 1 -8 10 -6 64 -87 64 -95 0 -2 -62 -3 -138 -3 -128 1 -138 2 -160 24
-12 12 -22 24 -21 27 0 9 -68 115 -72 112 -2 -1 -3 0 -2 2 2 2 -2 10 -7 16
-12 15 -6 26 74 149 32 49 61 85 65 80 3 -5 23 -36 45 -69z"/>
</g>
</svg>
